<svg id="Layer_1" data-name="Layer 1" xmlns="http://www.w3.org/2000/svg" viewBox="0 0 140 70"><defs><style>.cls-1{fill:#231f20;}.cls-2{fill:#e31b23;}</style></defs><title>polk-logo-full</title><path class="cls-1" d="M104.44,51.2H99.81c-.87,0-1.16-.29-1.16-1.16V.28h6.94V50c0,.87-.29,1.16-1.16,1.16"/><path class="cls-1" d="M132.07,51.2H140L123.66,30.05l12.17-14.73h-6.94l-12,14.05V.28h-6.94V50c0,.87.29,1.16,1.16,1.16h4.63c.87,0,1.16-.29,1.16-1.16V38.26l2.57-3.11Z"/><path class="cls-1" d="M62.2,18.8H43.68V68.56c0,.87.29,1.16,1.16,1.16h4.63c.87,0,1.16-.29,1.16-1.16V51.2H62.2a4.26,4.26,0,0,0,4.63-4.63V23.43A4.26,4.26,0,0,0,62.2,18.8M59.88,42.52a1.54,1.54,0,0,1-1.74,1.74H50.63V25.74h7.52a1.53,1.53,0,0,1,1.74,1.73Z"/><path class="cls-1" d="M89.68,18.8H75.8a4.26,4.26,0,0,0-4.63,4.63V46.57A4.26,4.26,0,0,0,75.8,51.2H89.68a4.26,4.26,0,0,0,4.63-4.63V23.43a4.26,4.26,0,0,0-4.63-4.63M87.37,42.52a1.53,1.53,0,0,1-1.74,1.74H79.85a1.54,1.54,0,0,1-1.74-1.74v-15a1.53,1.53,0,0,1,1.74-1.73h5.79a1.53,1.53,0,0,1,1.74,1.73Z"/><path class="cls-2" d="M19.67,15.33A19.67,19.67,0,1,0,39.35,35,19.67,19.67,0,0,0,19.67,15.33m9.32,21L19.68,47.2,10.37,36.28h0A6.13,6.13,0,0,1,8.56,31.9c0-3.4,2.14-6.15,5.54-6.15,2,0,4.45,2.41,5.57,3.94,1.12-1.52,3.7-3.94,5.73-3.94,3.4,0,5.38,2.75,5.38,6.15A6.13,6.13,0,0,1,29,36.27Z"/></svg>