<svg xmlns="http://www.w3.org/2000/svg" width="103.5" height="53.69"><g data-name="Group 7019"><path data-name="Path 1" d="M52.156 46.892l20.874 6.8V0L52.156 6.8v40.092z" fill="#4cc7e9"/><g data-name="Group 2"><g data-name="Group 1" fill="#343741"><path data-name="Path 2" d="M0 20.422h3.579v2.015A4.807 4.807 0 017.7 20.122c3.158 0 5.595 2.346 5.595 6.587v.213c0 4.241-2.406 6.647-5.595 6.647a4.591 4.591 0 01-4.121-2.226v6.347H0zm9.655 6.527v-.211c0-2.617-1.293-3.88-3.068-3.88-1.865 0-3.158 1.293-3.158 3.88v.211c0 2.587 1.233 3.85 3.158 3.85 1.985-.029 3.068-1.353 3.068-3.849z"/><path data-name="Path 3" d="M15.22 28.723v-8.3h3.549v7.79c0 1.745.722 2.587 2.226 2.587a2.553 2.553 0 002.677-2.827v-7.55h3.548v12.874h-3.518v-2.016a4.271 4.271 0 01-4.091 2.286c-2.526 0-4.391-1.474-4.391-4.844z"/><path data-name="Path 4" d="M29.958 14.588h3.549v18.679h-3.549z"/><path data-name="Path 5" d="M36.695 29.477V22.95h-1.654v-2.527h1.654v-2.767h3.546v2.767h2.707v2.527h-2.707v6.2c0 1.023.511 1.534 1.414 1.534a3.2 3.2 0 001.354-.241v2.767a6.271 6.271 0 01-2.166.331c-2.674-.004-4.148-1.385-4.148-4.064z"/></g></g><g data-name="Group 4"><g data-name="Group 3" fill="#343741"><path data-name="Path 6" d="M82.324 20.423h3.579v2.466a4.24 4.24 0 014.151-2.646v3.309c-2.647-.03-4.151.842-4.151 3.309v6.437h-3.579z"/><path data-name="Path 7" d="M91.498 28.723v-8.3h3.549v7.79c0 1.745.722 2.587 2.226 2.587a2.553 2.553 0 002.677-2.827v-7.55h3.548v12.874h-3.549v-2.016a4.271 4.271 0 01-4.091 2.286c-2.495 0-4.36-1.474-4.36-4.844z"/></g></g></g></svg>